<?xml version="1.0" standalone="no"?>
<!DOCTYPE svg PUBLIC "-//W3C//DTD SVG 20010904//EN"
 "http://www.w3.org/TR/2001/REC-SVG-20010904/DTD/svg10.dtd">
<svg version="1.0" xmlns="http://www.w3.org/2000/svg"
 width="705.000000pt" height="705.000000pt" viewBox="0 0 705.000000 705.000000"
 preserveAspectRatio="xMidYMid meet">

<g transform="translate(0.000000,705.000000) scale(0.100000,-0.100000)"
fill="#000000" stroke="none">
<path d="M5613 6322 c-15 -9 -33 -55 -44 -107 -4 -22 -15 -69 -24 -105 -9 -36
-18 -81 -21 -100 -3 -19 -9 -44 -13 -55 -10 -23 -31 -124 -38 -175 -2 -19 -8
-44 -13 -55 -5 -11 -11 -38 -13 -60 -3 -22 -12 -71 -22 -110 -9 -38 -20 -92
-25 -120 -4 -27 -15 -84 -25 -125 -9 -41 -20 -97 -25 -125 -5 -27 -16 -81 -24
-120 -9 -38 -20 -95 -26 -125 -5 -30 -17 -89 -25 -130 -18 -86 -30 -148 -45
-238 -5 -35 -13 -68 -16 -74 -6 -9 -16 -67 -33 -180 -5 -31 -11 -61 -15 -66
-3 -6 -11 -39 -16 -74 -48 -290 -46 -284 -94 -301 -97 -34 -207 -67 -221 -67
-8 0 -23 -4 -33 -9 -17 -8 -72 -26 -162 -51 -25 -7 -76 -23 -115 -35 -38 -12
-97 -30 -130 -40 -33 -10 -68 -21 -77 -26 -10 -5 -29 -9 -42 -9 -14 0 -27 -4
-30 -9 -4 -5 -24 -12 -46 -16 -22 -4 -42 -11 -46 -16 -3 -5 -16 -9 -30 -9 -13
0 -32 -4 -42 -9 -9 -5 -44 -17 -77 -26 -33 -10 -69 -21 -80 -25 -11 -4 -47
-16 -80 -25 -33 -10 -69 -21 -80 -25 -45 -16 -122 -39 -151 -45 -24 -5 -33 -2
-38 10 -3 9 -3 22 0 27 6 10 26 97 44 198 5 25 16 79 25 120 25 117 34 162 40
200 6 32 26 127 45 210 4 19 13 62 20 95 7 33 16 80 21 105 6 25 14 65 18 90
5 25 16 79 26 120 9 41 20 98 25 125 5 28 16 82 25 120 9 39 20 93 25 120 5
28 17 82 25 120 18 78 29 132 45 219 6 33 13 63 16 68 12 19 40 192 50 310 7
79 -8 189 -30 216 -62 79 -127 90 -235 41 -70 -32 -138 -88 -251 -206 -97
-101 -292 -359 -359 -476 -14 -25 -38 -66 -53 -91 -15 -26 -30 -55 -33 -66 -4
-11 -11 -20 -16 -20 -5 0 -9 -7 -9 -14 0 -8 -11 -36 -25 -62 -14 -26 -25 -53
-25 -60 0 -8 -4 -14 -9 -14 -5 0 -11 -10 -14 -22 -3 -13 -14 -48 -25 -78 -25
-70 -47 -157 -62 -243 -22 -122 10 -230 91 -307 61 -59 137 -79 275 -71 31 2
48 45 32 79 -12 24 -19 27 -73 30 -33 1 -71 7 -85 13 -97 43 -107 53 -120 133
-9 54 5 204 21 221 5 5 9 19 9 31 0 19 11 51 40 122 6 12 14 32 19 45 20 48
73 155 101 202 16 28 33 57 37 65 15 32 127 205 144 224 11 11 19 23 19 27 0
4 6 14 13 21 6 7 32 40 57 73 56 75 248 272 298 305 83 55 110 62 133 33 10
-12 14 -47 13 -132 -2 -107 -7 -149 -36 -271 -6 -25 -15 -65 -19 -90 -24 -132
-31 -164 -39 -181 -6 -10 -10 -30 -10 -45 0 -15 -4 -41 -9 -58 -5 -17 -17 -67
-26 -111 -9 -44 -20 -96 -25 -115 -5 -19 -11 -51 -15 -70 -3 -19 -12 -66 -21
-105 -8 -38 -19 -90 -24 -115 -4 -25 -15 -79 -25 -120 -9 -41 -20 -97 -25
-125 -5 -27 -17 -81 -25 -120 -19 -84 -32 -147 -40 -195 -6 -32 -26 -127 -45
-210 -15 -65 -43 -208 -59 -300 -12 -76 -30 -110 -56 -110 -11 0 -25 -4 -31
-8 -5 -4 -34 -15 -64 -25 -125 -38 -226 -70 -245 -77 -11 -4 -47 -16 -80 -25
-33 -10 -67 -21 -75 -24 -8 -4 -55 -20 -105 -35 -49 -16 -97 -31 -105 -35 -8
-4 -42 -16 -75 -26 -33 -9 -74 -24 -92 -31 -17 -8 -37 -14 -45 -14 -8 0 -19
-5 -25 -11 -16 -16 -68 -7 -66 11 1 8 9 47 18 85 9 39 21 90 25 115 5 25 16
74 25 110 9 36 20 85 25 110 4 25 16 77 25 115 20 84 31 132 44 202 5 29 13
57 16 63 3 6 11 34 16 63 15 78 25 126 39 182 19 77 27 113 45 200 10 44 21
89 26 100 4 11 10 36 12 55 3 19 12 64 22 100 9 36 20 85 25 110 4 25 16 74
25 110 18 74 31 131 44 193 11 54 30 133 42 173 5 17 9 39 9 49 0 10 7 43 16
74 9 31 20 72 24 91 5 19 18 76 30 125 12 50 26 110 31 135 5 25 16 83 25 130
26 136 29 319 7 393 -35 116 -119 170 -231 146 -30 -6 -63 -15 -71 -19 -9 -5
-23 -11 -31 -14 -126 -49 -417 -328 -613 -589 -38 -50 -77 -102 -87 -114 -10
-12 -23 -30 -29 -41 -6 -11 -17 -27 -23 -34 -7 -8 -17 -21 -23 -30 -5 -9 -49
-77 -97 -151 -48 -75 -103 -164 -123 -199 -54 -95 -209 -413 -240 -493 -15
-38 -34 -84 -41 -102 -8 -17 -14 -36 -14 -42 0 -6 -4 -19 -9 -29 -14 -28 -61
-180 -61 -199 0 -9 -4 -30 -9 -47 -44 -146 -57 -424 -25 -535 52 -180 161
-315 309 -384 90 -42 126 -52 235 -67 105 -14 176 -12 194 6 23 22 20 57 -7
82 -19 18 -35 22 -94 22 -65 0 -167 18 -218 39 -67 28 -137 66 -163 89 -39 35
-112 141 -112 162 0 9 -4 20 -8 26 -18 20 -36 131 -36 228 -1 95 13 211 35
301 20 80 41 150 50 167 5 10 9 26 9 37 0 10 11 44 25 75 14 31 25 61 25 66 0
21 155 349 218 461 10 19 34 61 52 94 18 33 37 62 41 63 5 2 9 7 9 12 0 12
101 174 111 178 5 2 9 8 9 13 0 14 210 306 252 350 7 8 31 37 52 64 57 72 282
294 346 342 91 67 146 93 196 93 58 0 71 -13 91 -96 15 -58 15 -79 4 -158 -19
-140 -44 -278 -67 -361 -8 -33 -20 -80 -24 -105 -5 -25 -17 -72 -25 -105 -9
-33 -20 -80 -25 -105 -4 -25 -16 -74 -25 -110 -10 -36 -21 -83 -25 -105 -5
-22 -16 -69 -25 -105 -9 -36 -19 -83 -22 -105 -3 -22 -9 -44 -14 -50 -5 -5 -9
-21 -9 -36 0 -15 -5 -40 -11 -56 -6 -15 -15 -50 -20 -78 -14 -70 -24 -119 -44
-200 -9 -38 -20 -88 -25 -110 -5 -22 -16 -69 -25 -105 -8 -36 -19 -85 -24
-110 -5 -25 -17 -76 -26 -115 -9 -38 -21 -88 -25 -110 -5 -22 -16 -71 -25
-110 -9 -38 -21 -89 -26 -112 -5 -24 -13 -62 -18 -85 -5 -24 -17 -74 -26 -113
-16 -69 -21 -90 -45 -210 -7 -33 -16 -68 -21 -77 -5 -10 -9 -30 -9 -46 0 -16
-7 -48 -15 -73 -13 -37 -22 -47 -58 -61 -23 -10 -48 -18 -55 -18 -7 0 -20 -4
-30 -9 -9 -5 -37 -17 -62 -26 -25 -10 -69 -28 -98 -41 -29 -13 -57 -24 -62
-24 -6 0 -18 -4 -28 -9 -9 -5 -44 -22 -77 -37 -169 -77 -232 -112 -277 -156
-35 -35 -48 -55 -48 -75 1 -69 121 -133 166 -89 17 17 19 67 2 84 -22 22 9 42
187 122 79 35 105 46 180 75 39 15 79 31 90 36 108 45 129 45 119 0 -9 -44
-35 -164 -44 -201 -28 -117 -38 -165 -60 -284 -6 -33 -13 -63 -16 -68 -5 -7
-9 -28 -33 -158 -5 -25 -16 -76 -26 -115 -9 -38 -20 -90 -25 -115 -4 -25 -15
-79 -25 -120 -9 -41 -20 -97 -25 -125 -5 -27 -16 -84 -25 -125 -10 -41 -21
-97 -26 -125 -17 -104 -29 -165 -39 -190 -6 -15 -10 -40 -10 -57 0 -18 -4 -45
-9 -62 -31 -102 -77 -456 -66 -512 7 -39 51 -60 89 -43 52 24 97 179 61 209
-20 16 -20 88 0 163 8 32 15 69 15 82 0 14 4 44 10 67 27 124 41 196 59 300 5
31 12 61 15 66 5 8 14 55 36 177 5 28 16 82 25 120 9 39 20 90 25 115 4 25 15
79 25 120 9 41 20 95 25 120 5 25 16 77 25 115 9 39 20 90 25 115 4 25 16 77
25 115 19 80 32 141 44 205 5 25 14 68 21 95 26 105 29 121 35 156 7 49 24 61
130 97 50 17 106 36 125 43 19 7 44 15 55 20 11 4 29 10 40 12 11 3 47 15 80
26 33 12 83 29 110 37 28 9 59 19 70 24 11 4 47 16 80 26 33 10 64 22 70 26 5
4 19 8 32 8 13 0 31 4 41 9 17 9 68 27 148 51 48 14 80 10 77 -10 -1 -8 -9
-49 -18 -90 -9 -41 -20 -97 -25 -125 -5 -27 -16 -84 -25 -125 -17 -79 -26
-125 -45 -229 -6 -36 -13 -68 -16 -73 -6 -9 -10 -32 -33 -174 -6 -33 -15 -73
-21 -88 -5 -15 -10 -39 -10 -53 0 -15 -4 -40 -9 -57 -5 -17 -15 -60 -22 -96
-6 -36 -16 -85 -21 -110 -5 -25 -13 -67 -18 -95 -4 -27 -16 -86 -25 -130 -9
-44 -20 -102 -25 -130 -4 -27 -16 -88 -25 -135 -9 -47 -21 -107 -25 -135 -5
-27 -13 -81 -19 -120 -6 -38 -14 -77 -17 -85 -4 -8 -10 -42 -15 -75 -21 -153
-29 -197 -35 -206 -8 -13 -24 -148 -31 -257 -4 -78 -3 -85 18 -103 37 -32 78
-22 110 26 38 56 44 105 19 152 -17 34 -18 45 -9 98 6 33 15 85 19 115 17 115
30 196 36 210 4 8 10 42 15 75 15 109 46 276 60 321 5 17 9 47 9 67 0 19 4 47
10 61 9 25 21 82 40 201 5 28 16 84 25 125 9 41 20 98 25 125 5 28 16 84 25
125 9 41 20 98 25 125 4 28 16 86 25 130 18 85 27 134 45 229 6 33 13 63 16
68 3 5 10 35 15 66 26 156 49 272 60 300 5 13 9 36 9 53 0 16 6 44 14 63 14
33 29 42 116 66 25 7 77 23 115 35 39 12 111 35 160 50 185 57 252 78 322 101
39 13 79 24 87 24 9 0 24 4 34 9 9 5 44 17 77 26 33 10 69 21 80 25 11 4 47
16 80 25 33 10 71 21 85 25 14 4 52 15 85 25 33 10 68 21 77 26 10 5 27 9 38
9 11 0 28 4 38 9 35 19 111 38 123 30 10 -6 10 -22 0 -81 -7 -40 -16 -95 -21
-123 -5 -27 -16 -86 -25 -130 -17 -78 -24 -117 -44 -241 -6 -33 -15 -73 -21
-88 -5 -15 -10 -41 -10 -58 0 -18 -4 -45 -9 -62 -12 -38 -34 -154 -61 -316 -5
-30 -16 -91 -25 -135 -9 -44 -21 -105 -26 -135 -5 -30 -16 -89 -24 -130 -9
-41 -20 -97 -25 -125 -19 -115 -31 -179 -36 -187 -6 -10 -22 -95 -31 -166 -4
-35 -1 -46 13 -57 43 -32 84 -12 101 50 17 59 46 211 62 317 5 31 11 61 15 66
3 6 11 39 16 74 21 122 28 164 45 243 9 44 20 103 25 130 4 28 16 88 25 135 9
47 21 108 25 135 5 28 16 84 25 125 9 41 20 100 25 130 4 30 16 91 25 135 21
102 33 161 40 205 9 59 36 193 46 231 5 20 9 50 9 66 0 43 11 49 145 88 33 10
68 21 77 26 10 5 25 9 34 9 15 0 86 21 139 41 11 4 47 15 80 24 33 9 71 20 85
25 14 4 66 20 115 35 50 15 99 31 110 35 62 24 113 40 127 40 8 0 21 14 28 31
20 47 -1 79 -52 79 -21 0 -46 -4 -56 -9 -9 -5 -44 -16 -77 -26 -33 -9 -69 -21
-80 -25 -11 -4 -47 -16 -80 -25 -33 -10 -69 -21 -80 -25 -11 -4 -47 -15 -80
-25 -33 -9 -71 -21 -85 -25 -14 -4 -52 -15 -85 -25 -33 -10 -68 -21 -77 -26
-10 -5 -29 -9 -42 -9 -14 0 -28 -4 -31 -10 -3 -5 -20 -10 -37 -10 l-30 0 5 58
c3 31 13 91 22 132 9 41 20 100 25 130 5 30 17 89 25 130 17 80 28 137 45 238
5 35 13 68 16 74 6 9 16 67 33 180 5 31 12 61 16 68 7 11 17 64 34 182 5 31
11 60 14 65 6 10 19 75 36 178 5 28 16 84 26 125 9 41 20 98 25 125 5 28 17
82 26 120 9 39 20 90 25 115 14 79 26 134 39 185 6 28 16 66 20 85 5 19 13 54
19 76 17 63 14 91 -11 108 -24 17 -46 20 -65 8z"/>
</g>
</svg>
