<?xml version="1.0" encoding="utf-8"?>
<!-- Pinterest SVG used to generate icon-fonts -->
<svg xmlns="http://www.w3.org/2000/svg" viewBox="0 0 24 24" width="24" height="24" fill="currentColor">
  <path d="M12.004 0C5.373 0 0 5.373 0 12.004c0 4.99 3.283 9.238 7.891 10.789-.11-.917-.207-2.328.044-3.33.226-.957 1.456-6.1 1.456-6.1s-.372-.746-.372-1.847c0-1.732 1.004-3.025 2.254-3.025 1.062 0 1.573.797 1.573 1.753 0 1.067-.676 2.662-1.025 4.14-.291 1.236.62 2.243 1.836 2.243 2.204 0 3.889-2.326 3.889-5.661 0-2.951-2.122-5.018-5.151-5.018-3.508 0-5.619 2.63-5.619 5.35 0 1.07.412 2.221.927 2.843.103.124.118.232.086.356-.093.39-.303 1.236-.344 1.405-.053.225-.171.272-.397.165C6.01 17.68 5.27 15.55 5.27 13.796c0-3.95 2.877-7.585 8.29-7.585 4.348 0 7.73 3.096 7.73 7.232 0 4.33-2.717 7.812-6.466 7.812-1.262 0-2.451-.66-2.857-1.445l-.777 2.966c-.281 1.097-1.04 2.468-1.547 3.301C10.911 23.928 11.918 24 12.004 24 18.636 24 24 18.627 24 12.004 24 5.373 18.636 0 12.004 0z"/>
</svg>
