<?xml version="1.0" encoding="utf-8"?>
<!-- YouTube SVG used to generate icon-fonts -->
<svg xmlns="http://www.w3.org/2000/svg" viewBox="0 0 24 24" width="24" height="24" fill="currentColor">
  <path d="M23.498 6.186a2.996 2.996 0 00-2.11-2.117C19.607 3.36 12 3.36 12 3.36s-7.607 0-9.388.709A2.996 2.996 0 00.502 6.186 31.96 31.96 0 000 12a31.96 31.96 0 00.502 5.814 2.995 2.995 0 002.11 2.116c1.781.709 9.388.709 9.388.709s7.607 0 9.388-.709a2.996 2.996 0 002.11-2.116A31.96 31.96 0 0024 12a31.96 31.96 0 00-.502-5.814zM9.545 15.568V8.432L15.818 12l-6.273 3.568z"/>
</svg>
